<svg width="120" height="120" viewBox="0 0 120 120" xmlns="http://www.w3.org/2000/svg">
  <title>Boat</title>
  <g id="group-back">
    <rect id="back-global" x="0" y="0" width="100%" height="100%" fill="#3f3f3f" stroke="none"/>
  </g>
  <g id="group-hive"
     stroke-linecap="square" stroke-miterlimit="100"
     stroke="#3f3f3f" stroke-width="2" fill="#fefefe"
  >
    <path id="hive-t"
          d="M60,26 m-10,-17 l20,0 l10,17 l-10,17 l-20,0 l-10,-17 l10,-17"
    />
    <path id="hive-rt"
          d="M90,43 m-10,-17 l20,0 l10,17 l-10,17 l-20,0 l-10,-17 l10,-17"
    />
    <path id="hive-rb"
          d="M90,77 m-10,-17 l20,0 l10,17 l-10,17 l-20,0 l-10,-17 l10,-17"
    />
    <path id="hive-b"
          d="M60,94 m-10,-17 l20,0 l10,17 l-10,17 l-20,0 l-10,-17 l10,-17"
    />
    <path id="hive-lb"
          d="M30,77 m-10,-17 l20,0 l10,17 l-10,17 l-20,0 l-10,-17 l10,-17"
    />
    <path id="hive-lt"
          d="M30,43 m-10,-17 l20,0 l10,17 l-10,17 l-20,0 l-10,-17 l10,-17"
    />
  </g>
  <g id="group-color"
     stroke-linecap="square" stroke-miterlimit="100"
     stroke="#3f3f3f" stroke-width="2" fill-opacity="0.382"
  >
    <path id="color-t"
          d="M60,26 m-10,-17 l20,0 l10,17 l-10,17 l-20,0 l-10,-17 l10,-17"
          fill="#ec8b00"
    />
    <path id="color-rt"
          d="M90,43 m-10,-17 l20,0 l10,17 l-10,17 l-20,0 l-10,-17 l10,-17"
          fill="#7f52ff"
    />
    <path id="color-rb"
          d="M90,77 m-10,-17 l20,0 l10,17 l-10,17 l-20,0 l-10,-17 l10,-17"
          fill="#ec8b00"
    />
    <path id="color-b"
          d="M60,94 m-10,-17 l20,0 l10,17 l-10,17 l-20,0 l-10,-17 l10,-17"
          fill="#7f52ff"
    />
    <path id="color-lb"
          d="M30,77 m-10,-17 l20,0 l10,17 l-10,17 l-20,0 l-10,-17 l10,-17"
          fill="#ec8b00"
    />
    <path id="color-lt"
          d="M30,43 m-10,-17 l20,0 l10,17 l-10,17 l-20,0 l-10,-17 l10,-17"
          fill="#7f52ff"
    />
  </g>
  <g id="group-title">
    <path id="title-back"
          d="M60,60 m-10,-17 l20,0 l10,17 l-10,17 l-20,0 l-10,-17 l10,-17"
          stroke-linecap="square" stroke-miterlimit="100"
          stroke="#3f3f3f" stroke-width="2" fill="#fefefe"
    />
    <path id="title-color"
          d="M60,60 m-10,-17 l20,0 l10,17 l-10,17 l-20,0 l-10,-17 l10,-17"
          stroke-linecap="square" stroke-miterlimit="100"
          stroke="#3f3f3f" stroke-width="2" fill="BurlyWood" fill-opacity="0.382"
    />
    <text id="title-boat" x="60" y="64" text-anchor="middle"
          font-family="Inter,Arial,sans-serif" font-size="12" font-weight="bold"
          fill="SaddleBrown"
    >
      Boat
    </text>
  </g>
</svg>