<svg width="120" height="120" viewBox="0 0 120 120" xmlns="http://www.w3.org/2000/svg">
  <title>Boat Spring Boot</title>
  <g id="group-back">
    <rect id="back-global" x="0" y="0" width="100%" height="100%" fill="#3f3f3f" stroke="none"/>
  </g>
  <g id="group-hive"
     stroke-linecap="square" stroke-miterlimit="100"
     stroke="#3f3f3f" stroke-width="2" fill="#fefefe"
  >
    <path id="hive-t"
          d="M60,26 m-10,-17 l20,0 l10,17 l-10,17 l-20,0 l-10,-17 l10,-17"
    />
    <path id="hive-rt"
          d="M90,43 m-10,-17 l20,0 l10,17 l-10,17 l-20,0 l-10,-17 l10,-17"
    />
    <path id="hive-rb"
          d="M90,77 m-10,-17 l20,0 l10,17 l-10,17 l-20,0 l-10,-17 l10,-17"
    />
    <path id="hive-b"
          d="M60,94 m-10,-17 l20,0 l10,17 l-10,17 l-20,0 l-10,-17 l10,-17"
    />
    <path id="hive-lb"
          d="M30,77 m-10,-17 l20,0 l10,17 l-10,17 l-20,0 l-10,-17 l10,-17"
    />
    <path id="hive-lt"
          d="M30,43 m-10,-17 l20,0 l10,17 l-10,17 l-20,0 l-10,-17 l10,-17"
    />
  </g>

  <g id="group-color"
     stroke-linecap="square" stroke-miterlimit="100"
     stroke="#3f3f3f" stroke-width="2" fill-opacity="0.382"
  >
    <path id="color-t"
          d="M60,26 m-10,-17 l20,0 l10,17 l-10,17 l-20,0 l-10,-17 l10,-17"
          fill="#ec8b00"
    />
    <path id="color-rt"
          d="M90,43 m-10,-17 l20,0 l10,17 l-10,17 l-20,0 l-10,-17 l10,-17"
          fill="#7f52ff"
    />
    <path id="color-rb"
          d="M90,77 m-10,-17 l20,0 l10,17 l-10,17 l-20,0 l-10,-17 l10,-17"
          fill="#ec8b00"
    />
    <path id="color-b"
          d="M60,94 m-10,-17 l20,0 l10,17 l-10,17 l-20,0 l-10,-17 l10,-17"
          fill="#7f52ff"
    />
    <path id="color-lb"
          d="M30,77 m-10,-17 l20,0 l10,17 l-10,17 l-20,0 l-10,-17 l10,-17"
          fill="#ec8b00"
    />
    <path id="color-lt"
          d="M30,43 m-10,-17 l20,0 l10,17 l-10,17 l-20,0 l-10,-17 l10,-17"
          fill="#7f52ff"
    />
  </g>
  <g id="group-title">
    <path id="title-back"
          d="M60,60 m-10,-17 l20,0 l10,17 l-10,17 l-20,0 l-10,-17 l10,-17"
          stroke-linecap="square" stroke-miterlimit="100"
          stroke-width="2" stroke="#6aad3d" fill="#6aad3d" filter="url(#filter-light)"
    />
    <g id="group-title-text" text-anchor="middle" font-family="Inter,Arial,sans-serif"
       font-size="8"
    >
      <text id="text-boat" x="60" y="53" fill="SaddleBrown">
        Boat
      </text>
      <text id="text-spring" x="60" y="63" fill="#f7f7f7">
        Spring
      </text>
      <text id="text-boot" x="60" y="73" fill="#f7f7f7">
        Boot
      </text>
    </g>
  </g>
  <defs>
    <filter id="filter-light">
      <feColorMatrix result="colorOut" in="SourceGraphic"
                     values="0.41569 0 0 0 0
                             0 0.67843 0 0 0
                             0 0 0.86667 0 0
                             0 0 0 1 0"
      />
      <feGaussianBlur result="blurOut" in="colorOut" stdDeviation="3"/>
      <feBlend in="SourceGraphic" in2="blurOut" mode="normal"/>
    </filter>
  </defs>
</svg>