<svg width="120" height="120" viewBox="0 0 120 120" xmlns="http://www.w3.org/2000/svg">
  <title>SrcLab</title>
  <g id="group-back">
    <rect id="back-global" x="0" y="0" width="100%" height="100%" fill="#3f3f3f" stroke="none"/>
  </g>
  <g id="group-hive"
     stroke-linecap="square" stroke-miterlimit="100"
     stroke="Purple" stroke-width="2" fill="#fefefe" filter="url(#filter-light)"
  >
    <path id="hive-t"
          d="M60,60 m-10,-17 l20,0 l10,17 l-10,17 l-20,0 l-10,-17 l10,-17"
          transform="translate(0,-34)"
    />
    <path id="hive-rt"
          d="M60,60 m-10,-17 l20,0 l10,17 l-10,17 l-20,0 l-10,-17 l10,-17"
          transform="translate(30,-17)"
    />
    <path id="hive-rb"
          d="M60,60 m-10,-17 l20,0 l10,17 l-10,17 l-20,0 l-10,-17 l10,-17"
          transform="translate(30,17)"
    />
    <path id="hive-b"
          d="M60,60 m-10,-17 l20,0 l10,17 l-10,17 l-20,0 l-10,-17 l10,-17"
          transform="translate(0,34)"
    />
    <path id="hive-lt"
          d="M60,60 m-10,-17 l20,0 l10,17 l-10,17 l-20,0 l-10,-17 l10,-17"
          transform="translate(-30,-17)"
    />
    <path id="hive-lb"
          d="M60,60 m-10,-17 l20,0 l10,17 l-10,17 l-20,0 l-10,-17 l10,-17"
          transform="translate(-30,17)"
    />
  </g>
  <g id="group-moth"
     stroke-linecap="square" stroke-miterlimit="100"
     stroke="none" stroke-width="0" fill="#5C009D" filter="url(#filter-light)"
  >
    <path id="moth-wing-rb"
          d="M60,60 m0,-13 l35,10 l-32,20 l-3,-20 z"
    />
    <path id="moth-wing-lb"
          d="M60,60 m0,-13 l-35,10 l32,20 l3,-20 z"
    />
    <path id="moth-wing-rt"
          d="M60,60 m0,-16 l40,15 l-22,15 l-18,-27 z"
    />
    <path id="moth-wing-lt"
          d="M60,60 m0,-16 l-40,15 l22,15 l18,-27 z"
    />
  </g>
  <defs>
    <filter id="filter-light">
      <feColorMatrix result="colorOut" in="SourceGraphic"
                     values="0.36078 0 0 0 0
                             0 0.00001 0 0 0
                             0 0 0.61569 0 0
                             0 0 0 1 0"
      />
      <feGaussianBlur result="blurOut" in="colorOut" stdDeviation="5"/>
      <feBlend in="SourceGraphic" in2="blurOut" mode="normal"/>
    </filter>
  </defs>
</svg>