<svg width="100" height="100" xmlns="http://www.w3.org/2000/svg">
  <title>SrcLab</title>

  <g>
    <path id="srclab-S"
          d="M25,50 m25,-37.5 l-25,-12.5 l-25,12.5 l50,25 l-25,12.5 l-25,-12.5"
          stroke="url(#srclab-S-color)" stroke-width="10" stroke-miterlimit="0"
          fill="none"/>
    <path id="srclab-rc"
          d="
          M62.5,50 m-10,0 l0,-30 m0,15 l25,-15
          M87.5,50 m12.5,-22.5 l-12.5,-7.5 l-12.5,15 l12.5,15 l12.5,-7.5
          "
          stroke="url(#srclab-rc-color)" stroke-width="5" stroke-miterlimit="0"
          fill="none"/>
    <path id="srclab-ab"
          d="
          M37.5,100 m-12.5,-30 l15,0 l10,30 m-7,-20 l-18,17.5 l25,0
          M12.5,100 m-10,0 l0,-40 m0,20 l25,10 l-25,10
          "
          stroke="url(#srclab-ab-color)" stroke-width="5" stroke-miterlimit="0"
          fill="none"/>
    <path id="srclab-L"
          d="M75,100 m-20,-50 l0,45 l50,0"
          stroke="url(#srclab-L-color)" stroke-width="10" stroke-miterlimit="100"
          fill="none"/>
  </g>

  <defs>
    <linearGradient id="srclab-S-color" x1="100%" y1="100%" x2="0%" y2="0%">
      <stop offset="0%" stop-color="Red"></stop>
      <stop offset="100%" stop-color="Darkorange"></stop>
    </linearGradient>
    <linearGradient id="srclab-rc-color" x1="0%" y1="100%" x2="100%" y2="0%">
      <stop offset="0%" stop-color="Fuchsia"></stop>
      <stop offset="100%" stop-color="Yellow"></stop>
    </linearGradient>
    <linearGradient id="srclab-L-color" x1="0%" y1="0%" x2="100%" y2="100%">
      <stop offset="0%" stop-color="Green"></stop>
      <stop offset="100%" stop-color="PaleGreen"></stop>
    </linearGradient>
    <linearGradient id="srclab-ab-color" x1="100%" y1="0%" x2="0%" y2="100%">
      <stop offset="0%" stop-color="Blue"></stop>
      <stop offset="100%" stop-color="Violet"></stop>
    </linearGradient>
  </defs>
</svg>