<svg width="100" height="100" viewBox="0 0 1024 1024" xmlns="http://www.w3.org/2000/svg">
  <title>EfoTV</title>
  <g id="group-fly">
    <path
      d="M537.84934021 611.91345019c3.60399455-4.34964859 7.39440261-7.82936747 11.2469485-10.56343229 3.91468373-2.73406483 7.8915053-4.78461345 11.86832687-6.27592155 4.03895941-1.49130809 8.07791882-2.36123781 12.05474039-2.73406483 3.97682157-0.43496485 7.95364315-0.37282702 11.7440512-0.06213783 4.47392427 0.37282702 8.69929718 1.1806189 12.48970525 2.17482429 3.8525459 0.99420539 7.27012693 2.1748243 10.12846743 3.3554432 2.92047835 1.1806189 5.28171615 2.29909997 6.95943775 3.1690297 1.6777216 0.86992972 2.67192699 1.49130809 2.8583405 1.61558375-0.06213783-0.18641351-0.31068918-1.30489458-0.6835162-3.85254588-0.37282702-2.54765132-0.80779188-6.58661072-1.24275675-12.67611877-0.43496485-6.02737019-0.86992972-14.10528901-1.11848106-24.73085913-0.24855135-10.5634323-0.37282702-23.61237808-0.18641351-39.70607787 0.18641351-18.01997275 4.59819995-33.67870768 11.80618904-47.84613453 7.2079891-14.22956468 17.2743187-27.09209695 28.5212672-39.20897516 11.43336202-12.2411539 24.17161861-23.79879158 36.66132385-35.2321536 12.61398092-11.55763769 24.85513482-23.05313755 34.92146441-34.79718874 10.00419177-11.80618903 19.82197002-33.49229417 29.32905909-59.52804788 9.44495123-26.03575372 18.51707543-56.17260468 27.09209694-84.88028539 8.51288368-28.64554288 16.52866465-55.8619155 23.92306726-76.24312605 7.45654045-20.38121055 14.29170252-33.98939685 20.69189973-35.48070495 20.1326592-0.37282702 35.91566981 15.03735657 48.28109938 39.7682157 12.73825659 25.41437535 21.74824297 60.64652895 28.08630234 98.42633387 6.46233505 38.71187248 10.00419177 79.97139627 11.61977553 115.70065257 1.6777216 36.28849683 1.30489458 66.54962347 0.06213783 82.27049623-1.6777216 21.12686459-4.66033778 47.03834263-8.51288367 75.12464498-3.8525459 28.33485369-8.57502151 58.84453168-13.67032414 88.9192448-5.09530263 30.26112663-10.50129445 60.02515058-15.72087278 86.55800699-5.21957831 26.65713209-10.25274311 49.89668315-14.47811602 67.04672616-0.06213783 0.06213783-0.31068918 0.4971027-0.68351622 1.11848107-0.37282702 0.62137837-0.93206755 1.36703242-1.49130808 2.05054863-0.62137837 0.68351621-1.24275675 1.36703242-1.92627295 1.80199727-0.68351621 0.43496485-1.36703242 0.62137837-1.98841079 0.31068918 21.18900243-80.71705031 33.80298335-156.40093582 40.32745624-223.69621333 6.40019722-66.05252077 6.89729991-123.46788219 3.97682158-170.13339781-2.8583405-45.54703455-9.00998637-80.84132598-16.03156197-104.20515271-6.89729991-22.92886187-14.72666738-34.61077523-21.3132781-33.61656983-0.74565405 0.12427568-1.49130809 0.37282702-2.23696213 0.86992972-0.74565405 0.43496485-1.42917025 1.05634323-2.11268646 1.86413511-0.68351621 0.80779188-1.36703242 1.73985943-1.98841079 2.8583405s-1.24275675 2.42337565-1.86413511 3.8525459c-5.77881885 14.29170252-6.58661072 36.16422115-4.84675129 62.44852622 1.73985943 26.59499425 6.15164587 58.03673979 10.81198365 90.72124207 4.78461345 33.36801849 9.81777825 68.10306939 12.55184308 100.10405546 2.79620267 32.49808877 3.23116752 61.76501002-1.42917025 83.07828812-1.61558377-39.89249138-3.97682157-71.89347745-7.02157559-97.43212847-2.98261618-25.22796183-6.52447289-44.24213997-10.50129446-58.34742898-3.91468373-13.98101333-8.20219449-23.17741322-12.73825658-28.83195638-4.47392427-5.59240533-9.19639988-7.70509179-13.9188755-7.45654044-2.54765132 0.12427568-5.15744048 0.99420539-7.7050918 2.3612378-2.54765132 1.36703242-5.09530263 3.29330537-7.58081612 5.5302675s-4.90888912 4.84675129-7.27012693 7.58081612c-2.36123781 2.73406483-4.59819995 5.65454317-6.77302423 8.57502151-2.1748243 2.92047835-4.16323508 5.84095668-6.08950804 8.51288367-1.92627295 2.73406483-3.66613238 5.21957831-5.28171615 7.39440261s-3.04475402 3.97682157-4.22537291 5.21957831c-1.24275675 1.24275675-2.23696213 1.98841078-3.04475402 2.05054862-0.31068918 0-0.55924053-0.06213783-0.80779188-0.31068919-0.24855135-0.18641351-0.43496485-0.4971027-0.55924054-0.99420538a5.60483291 5.60483291 0 0 1-0.37282701-1.6777216c-0.06213783-0.68351621-0.12427568-1.55344592-0.12427567-2.48551348-2.8583405-4.84675129-5.46812965-8.8857107-7.89150532-12.2411539s-4.59819995-6.02737019-6.64874855-8.07791882c-1.98841078-2.05054862-3.8525459-3.54185671-5.46812966-4.47392427-1.61558377-0.93206755-3.10689185-1.30489458-4.41178644-1.24275673-3.23116752 0.18641351-5.46812965 3.16902969-6.83516207 7.95364313-1.36703242 4.84675129-1.92627295 11.55763769-1.73985943 19.13845381 0.18641351 7.64295395 1.05634323 16.21797547 2.54765131 24.79299698 1.49130809 8.57502151 3.54185671 17.15004302 6.08950803 24.73085914-3.54185671-4.78461345-6.89729991-8.8857107-10.0663296-12.24115389s-6.15164587-6.02737019-9.00998637-8.07791882c-2.8583405-2.05054862-5.5302675-3.54185671-8.01578097-4.47392427-2.48551348-0.93206755-4.90888912-1.36703242-7.08371343-1.30489458-5.40599182 0.06213783-9.94205392 2.8583405-13.73246198 7.39440262-3.79040805 4.5360621-6.77302423 10.81198365-9.00998637 17.9578349-2.23696213 7.14585125-3.72827022 15.22377008-4.53606211 23.30168888-0.74565405 8.07791882-0.80779188 16.15583763-0.12427567 23.36382673-1.36703242-3.3554432-3.10689185-6.7108864-5.09530264-9.94205393-1.98841078-3.23116752-4.22537292-6.27592155-6.7108864-8.94784853-2.42337565-2.60978915-5.09530263-4.84675129-7.82936746-6.40019721-2.73406483-1.55344592-5.59240533-2.48551348-8.45074584-2.54765132-1.6777216 0-3.29330537 0.24855135-4.97102696 0.80779188s-3.3554432 1.49130809-4.97102697 2.79620266c-1.6777216 1.30489458-3.29330537 2.92047835-4.90888913 5.0331648-1.61558377 2.05054862-3.23116752 4.5360621-4.78461344 7.51867829-5.21957831 9.87991609-7.58081612 20.31907271-7.95364315 30.6960915-0.37282702 10.50129445 1.1806189 21.00258892 3.79040806 31.06891851 2.60978915 10.12846743 6.33805938 19.75983218 10.19060528 28.33485369 3.8525459 8.63715935 7.82936747 16.09369979 10.99839715 21.68610513 2.60978915 4.72247562 9.07212421 15.16163223 17.70928356 29.0183699 8.82357285 14.10528901 20.07052137 31.8767104 32.00098607 50.64233718 12.2411539 19.26272948 25.29009968 39.70607787 37.22056438 58.28529114 12.17901605 19.01417813 23.11527538 36.03994548 30.57181582 47.72185885 1.24275675 1.86413511 1.98841078 4.16323508 2.36123782 6.64874856 0.37282702 2.54765132 0.31068918 5.28171615-0.12427568 8.07791881-0.43496485 2.79620267-1.24275675 5.5302675-2.42337564 8.14005666-1.1806189 2.54765132-2.67192699 4.90888912-4.47392427 6.77302423-0.74565405 0.80779188-1.55344592 1.49130809-2.3612378 2.05054862-0.80779188 0.55924053-1.61558377 0.99420539-2.36123781 1.30489458-0.80779188 0.31068918-1.61558377 0.4971027-2.36123782 0.55924054-0.74565405 0.06213783-1.55344592 0-2.23696213-0.18641352-0.55924053-0.12427568-1.05634323-0.37282702-1.61558375-0.62137837-0.4971027-0.31068918-0.99420539-0.62137837-1.49130809-1.05634323-0.43496485-0.43496485-0.86992972-0.93206755-1.30489458-1.49130808-0.43496485-0.55924053-0.80779188-1.24275675-1.11848107-1.92627295-8.57502151-17.9578349-23.67451591-41.19738595-41.44593731-65.55541808-17.21218085-23.55024023-36.72346169-47.97041019-55.17839929-69.78079099-17.89569707-21.06472675-34.92146442-39.83035355-48.28109938-53.43853985-13.04894578-13.29749712-22.92886187-21.93465648-27.0299591-23.3016889-0.37282702-0.12427568-0.68351621-0.24855135-1.05634323-0.31068917-0.37282702-0.12427568-0.74565405-0.18641351-1.05634323-0.24855136-0.37282702-0.06213783-0.74565405-0.12427568-1.05634324-0.1864135-0.37282702-0.06213783-0.74565405-0.12427568-1.05634322-0.12427567-3.79040805-0.43496485-7.70509179 0.12427568-11.49549985 1.80199727-3.79040805 1.6777216-7.51867828 4.41178643-11.060535 8.26433233-3.54185671 3.8525459-6.89729991 8.8857107-10.00419176 15.0994944-3.10689185 6.2137837-5.90309452 13.67032415-8.26433232 22.43175916-2.60978915 9.63136475-1.73985943 18.39279977 1.11848107 26.40858074 2.92047835 8.07791882 7.95364315 15.41018358 13.54604846 21.99679432 5.71668101 6.64874857 12.05474038 12.48970525 17.58500789 17.52287004 5.5302675 5.0331648 10.19060528 9.19639988 12.2411539 12.30329174-0.62137837 0-1.30489458-0.06213783-2.1748243-0.18641352-0.86992972-0.12427568-1.80199728-0.24855135-2.8583405-0.43496486-1.05634323-0.18641351-2.1748243-0.43496485-3.41758104-0.6835162-1.24275675-0.24855135-2.54765132-0.55924053-3.97682157-0.86992972-0.62137837-0.12427568-1.1806189-0.31068918-1.86413511-0.43496487-0.62137837-0.12427568-1.24275675-0.31068918-1.92627295-0.43496486-0.62137837-0.12427568-1.30489458-0.31068918-1.98841078-0.43496485-0.68351621-0.12427568-1.36703242-0.31068918-2.05054862-0.43496486-5.96523235-1.30489458-12.61398092-2.48551348-19.32486733-2.98261618-6.64874857-0.4971027-13.29749712-0.31068918-19.44914299 1.11848107-6.08950803 1.42917025-11.68191337 4.10109725-16.21797546 8.57502151-4.5360621 4.47392427-7.95364315 10.74984581-9.87991609 19.57341867-1.11848107 5.28171615-1.1806189 9.81777825-0.37282703 13.79459982 0.80779188 3.97682157 2.48551348 7.27012693 4.78461345 10.0663296 2.29909997 2.79620267 5.28171615 5.15744048 8.63715935 7.02157558 3.41758103 1.86413511 7.2079891 3.29330537 11.2469485 4.41178643 3.8525459 1.05634323 7.82936747 1.73985943 11.86832688 2.23696214 4.03895941 0.4971027 8.01578098 0.74565405 11.80618904 0.80779187 3.79040805 0.06213783 7.33226477 0 10.43915662-0.1864135s5.77881885-0.43496485 7.76722963-0.74565405c-3.29330537 1.6777216-8.20219449 4.97102697-13.54604847 9.19639988-5.34385398 4.22537292-11.06053499 9.32067555-16.0936998 14.72666738-4.97102697 5.34385398-9.19639988 10.93625932-11.49549985 16.15583762-2.29909997 5.21957831-2.73406483 10.00419177-0.06213783 13.85673767a32.18739958 32.18739958 0 0 0 8.82357285 8.51288367c1.73985943 1.1806189 3.60399455 2.23696213 5.59240533 3.16902969 1.98841078 0.93206755 4.10109725 1.73985943 6.33805938 2.48551349a86.99297185 86.99297185 0 0 0 16.59080249 3.41758103c6.02737019 0.68351621 12.48970525 0.99420539 19.20059165 0.99420539 6.77302423 0 13.85673765-0.31068918 21.00258891-0.74565404 7.2079891-0.43496485 14.6023917-1.11848107 21.87251864-1.80199727 7.39440261-0.68351621 14.72666738-1.42917025 21.74824296-2.11268646 7.14585125-0.68351621 14.04315117-1.24275675 20.44334839-1.61558377 6.52447289-0.37282702 12.55184308-0.4971027 17.89569706-0.24855135 5.40599182 0.24855135 10.19060528 0.80779188 14.04315118 1.92627295 0.68351621 0.18641351 1.30489458 0.37282702 1.92627294 0.62137837 0.62137837 0.24855135 1.24275675 0.4971027 1.80199728 0.74565405 0.55924053 0.24855135 1.11848107 0.55924053 1.61558376 0.80779188 0.4971027 0.31068918 0.99420539 0.62137837 1.42917026 0.93206755-0.24855135-0.18641351-0.55924053-0.37282702-0.86992973-0.55924053-0.31068918-0.18641351-0.62137837-0.31068918-0.93206755-0.49710269-0.31068918-0.12427568-0.68351621-0.31068918-1.05634322-0.43496486l-1.11848107-0.37282703c-7.82936747-2.23696213-21.37541595-0.99420539-37.96621843 1.92627296-16.2801133 2.8583405-35.41856711 7.33226477-54.8677101 11.7440512-19.01417813 4.28751075-38.33904545 8.45074583-55.8619155 10.9362593-17.08790518 2.42337565-32.43595093 3.29330537-44.18000214 1.11848107-0.4971027-0.06213783-0.99420539-0.18641351-1.42917026-0.31068917l-1.42917024-0.37282703c-0.4971027-0.12427568-0.93206755-0.24855135-1.36703242-0.43496487-0.43496485-0.12427568-0.93206755-0.31068918-1.36703241-0.43496485-10.68770797-3.79040805-18.70348895-12.17901605-24.54444563-23.42596457-5.71668101-11.12267283-9.38281339-25.10368617-11.30908634-40.32745623-1.92627295-15.0994944-2.1748243-31.44174555-1.18061891-47.59758317 0.99420539-16.03156195 3.29330537-31.93884823 6.40019722-46.23055075 1.92627295-8.82357285 4.97102697-19.51128083 8.8857107-31.1931942 3.91468373-11.68191337 8.69929718-24.29589428 14.22956468-37.03415087 5.5302675-12.73825659 11.80618903-25.53865102 18.57921327-37.46911573 6.64874857-12.17901605 14.04315117-23.30168889 21.87251864-32.68450229z"
      fill="url(#grad-orange)"/>
    <path
      d="M864.8186387 753.71199431c3.04475402-68.22734507-7.58081612-233.51399158-25.78720238-321.43903099-13.60818631-65.74183158-130.3651821-380.53211402-286.51756657-403.27456237-48.40537505-7.02157558-23.86092942 247.49500492-84.50745837 302.11416367s-200.1459731 101.22253653-162.61471953 191.01171106c33.24374282 79.66070708 50.02095882 98.17778252 50.02095882 98.17778251s-124.33781191-30.32326448-178.89483284 21.25114026-77.79657197 139.37516848-75.80816118 184.92220303c3.41758103 76.55381523 63.69128297 181.93958685 178.89483283 172.86746264 115.20354987-9.07212421 333.55590922-100.04191763 379.04080593-90.96979342-54.55702092-12.11687822-281.17371259 73.88188823-363.87917369 39.39538868-36.4127725-15.16163223 57.60177493-75.80816118 69.71865316-75.80816119 12.11687822 0-175.85007882 39.39538868-178.89483283-21.25114027s154.66107638-45.48489671 181.93958684-48.52965072c-24.23375645-12.11687822-145.52681435-33.36801849-142.54419817-81.89766922 3.04475402-48.52965072 38.5875968-67.85451805 78.8529152-63.69128296 40.20318057 4.16323508 343.12513612 132.72641991 426.82480261 195.29922181 7.58081612 5.65454317 18.08211058 4.47392427 24.6687213-2.29909998l0.43496487-0.43496485c8.69929718-8.82357285 7.02157558-23.36382672-3.60399455-29.7018861-65.86610725-39.14683733-260.41967502-154.97176557-290.55652598-175.10442478-36.4127725-24.23375645-116.38416877-81.46270435-90.96979342-130.3651821 20.75403757-40.01676705 78.8529152-12.11687822 106.13142565 12.11687823-26.90568343-47.34903182-21.25114027-130.3651821 100.04191763-54.55702093-45.48489671-48.52965072-78.8529152-136.45469013 24.23375645-57.60177493 18.20638625 48.90247775 67.108864-216.05325938 218.35235934 160.68844658 0-87.92503941-172.86746263-306.27739875-154.66107639-369.90654388 18.20638625-63.69128297 216.79891342 194.05646507 192.56515699 554.89088474 2.98261618 3.16902969 7.51867828-5.90309452 7.51867828-5.90309452z"
      fill="url(#grad-violet)"/>
  </g>
  <defs>
    <linearGradient id="grad-violet" x1="100%" x2="0%">
      <stop offset="0%" style="stop-color:HotPink;stop-opacity:1"/>
      <stop offset="100%" style="stop-color:BlueViolet;stop-opacity:1"/>
    </linearGradient>
    <linearGradient id="grad-orange" x1="100%" x2="0%">
      <stop offset="0%" style="stop-color:Yellow;stop-opacity:1"/>
      <stop offset="100%" style="stop-color:OrangeRed;stop-opacity:1"/>
    </linearGradient>
  </defs>
</svg>