<svg width="100" height="100" xmlns="http://www.w3.org/2000/svg">
  <title>SrcLab</title>
  <g>
    <!-- 43.3 -->
    <path id="element-S"
          d="M50,50 m0,-50 a50,50,1,0,0,-43.3,25 L50,50 z"
          stroke="none" stroke-width="none"
          fill="LimeGreen"
    />
    <path id="element-r"
          d="M50,50 m-43.5,-25 a50,50,1,0,0,0,50 L50,50 z"
          stroke="none" stroke-width="none"
          fill="RoyalBlue"
    />
    <path id="element-c"
          d="M50,50 m-43.5,25 a50,50,1,0,0,43.5,25 L50,50 z"
          stroke="none" stroke-width="none"
          fill="BlueViolet"
    />
    <path id="element-b"
          d="M50,50 m0,50 a50,50,1,0,0,43.5,-25 L50,50 z"
          stroke="none" stroke-width="none"
          fill="Violet"
    />
    <path id="element-a"
          d="M50,50 m43.5,25 a50,50,1,0,0,0,-50 L50,50 z"
          stroke="none" stroke-width="none"
          fill="Crimson"
    />
    <path id="element-L"
          d="M50,50 m43.5,-25 a50,50,1,0,0,-43.5,-25 L50,50 z"
          stroke="none" stroke-width="none"
          fill="Orange"
    />
    <circle
      cx="50" cy="50" r="25"
      stroke="none" stroke-width="none"
      fill="White"
    />
    <text id="element-spring"
          x="50" y="60" font-size="30" text-anchor="middle">
      SL
    </text>
  </g>
  <defs>
  </defs>
</svg>