<svg width="100" height="100" xmlns="http://www.w3.org/2000/svg">
  <title>SrcLab</title>
  <g>
    <rect id="background" x="0" y="0" width="100" height="100" fill="url(#color-background)"/>
    <path id="element-S"
          d="M25,50 m25,-37.5 l-25,-12.5 l-25,12.5 l50,25 l-25,12.5 l-25,-12.5"
          stroke="url(#color-S)" stroke-width="10" stroke-miterlimit="0"
          fill="none"/>
    <path id="element-rc"
          d="
          M62.5,50 m-10,0 l0,-30 m0,15 l25,-15
          M87.5,50 m12.5,-22.5 l-12.5,-7.5 l-12.5,15 l12.5,15 l12.5,-7.5
          "
          stroke="url(#color-rc)" stroke-width="5" stroke-miterlimit="0"
          fill="none"/>
    <path id="element-ab"
          d="
          M37.5,100 m-12.5,-30 l15,0 l10,30 m-7,-20 l-18,17.5 l25,0
          M12.5,100 m-10,0 l0,-40 m0,20 l25,10 l-25,10
          "
          stroke="url(#color-ab)" stroke-width="5" stroke-miterlimit="0"
          fill="none"/>
    <path id="element-L"
          d="M75,100 m-20,-50 l0,45 l50,0"
          stroke="url(#color-L)" stroke-width="10" stroke-miterlimit="100"
          fill="none"/>
  </g>
  <defs>
    <linearGradient id="color-background" x1="0%" y1="0%" x2="100%" y2="100%">
      <stop offset="0%" stop-color="Black"/>
      <stop offset="50%" stop-color="Gray"/>
      <stop offset="100%" stop-color="Black"/>
    </linearGradient>
    <linearGradient id="color-S" x1="100%" y1="100%" x2="0%" y2="0%">
      <stop offset="0%" stop-color="Red"/>
      <stop offset="100%" stop-color="Darkorange"/>
    </linearGradient>
    <linearGradient id="color-rc" x1="0%" y1="100%" x2="100%" y2="0%">
      <stop offset="0%" stop-color="Fuchsia"/>
      <stop offset="100%" stop-color="Yellow"/>
    </linearGradient>
    <linearGradient id="color-L" x1="0%" y1="0%" x2="100%" y2="100%">
      <stop offset="0%" stop-color="Green"/>
      <stop offset="100%" stop-color="PaleGreen"/>
    </linearGradient>
    <linearGradient id="color-ab" x1="100%" y1="0%" x2="0%" y2="100%">
      <stop offset="0%" stop-color="DeepSkyBlue"/>
      <stop offset="100%" stop-color="Violet"/>
    </linearGradient>
  </defs>
</svg>