<svg width="120" height="120" xmlns="http://www.w3.org/2000/svg">
  <title>Homeport</title>
  <g id="group-back">
    <rect id="back-global" x="0" y="0" width="120" height="120" fill="#222222" stroke="none"/>
  </g>
  <g id="group-hive"
     stroke-linecap="square" stroke-miterlimit="100"
     stroke="#5C009D" stroke-width="2" fill="#fefefe" filter="url(#filter-light)"
  >
    <path id="hive-top"
          d="M60,60 m-10,-51 l20,0 l10,17 l-10,17 l-20,0 l-10,-17 l10,-17"
    />
    <path id="hive-right-top"
          d="M60,60 m20,-34 l20,0 l10,17 l-10,17 l-20,0 l-10,-17 l10,-17"
    />
    <path id="hive-right-bottom"
          d="M60,60 m20,0 l20,0 l10,17 l-10,17 l-20,0 l-10,-17 l10,-17"
    />
    <path id="hive-bottom"
          d="M60,60 m-10,17 l20,0 l10,17 l-10,17 l-20,0 l-10,-17 l10,-17"
    />
    <path id="hive-left-bottom"
          d="M60,60 m-40,0 l20,0 l10,17 l-10,17 l-20,0 l-10,-17 l10,-17"
    />
    <path id="hive-left-top"
          d="M60,60 m-40,-34 l20,0 l10,17 l-10,17 l-20,0 l-10,-17 l10,-17"
    />
  </g>
  <g id="group-title">
    <circle id="title-hole" cx="60" cy="60" r="18"
            stroke="none" fill="url(#grad-hole)" filter="url(#filter-hole)"
    />
  </g>
  <defs>
    <filter id="filter-light">
      <feColorMatrix result="colorOut" in="SourceGraphic"
                     values="0.36078 0 0 0 0
                             0 0.00001 0 0 0
                             0 0 0.61569 0 0
                             0 0 0 1 0"
      />
      <feGaussianBlur result="blurOut" in="colorOut" stdDeviation="10"/>
      <feBlend in="SourceGraphic" in2="blurOut" mode="normal"/>
    </filter>
    <filter id="filter-hole">
      <feColorMatrix result="colorOut" in="SourceGraphic"
                     values="1 0 0 0 0
                             0 1 0 0 0
                             0 0 1 0 0
                             0 0 0 1 0"
      />
      <feGaussianBlur result="blurOut" in="colorOut" stdDeviation="3"/>
      <feBlend in="SourceGraphic" in2="blurOut" mode="normal"/>
    </filter>
    <radialGradient id="grad-hole" fx="50%" fy="50%">
      <stop offset="0%" style="stop-color:#ffffff;stop-opacity:1"/>
      <stop offset="100%" style="stop-color:#5C009D;stop-opacity:0.382"/>
    </radialGradient>
  </defs>
</svg>